<!-- icon666.com - MILLIONS vector ICONS FREE --><svg id="Capa_1" enable-background="new 0 0 496.747 496.747" viewBox="0 0 496.747 496.747" xmlns="http://www.w3.org/2000/svg"><g><ellipse cx="203.517" cy="327.14" fill="#f6ca56" rx="50.042" ry="23.547" transform="matrix(.707 -.707 .707 .707 -171.715 239.726)"></ellipse><path d="m214.8 219.935c0-43.163 18.547-81.992 48.103-108.96-4.706-1.429-9.562-2.185-14.529-2.185-42.649 0-77.223 55.116-77.223 123.106 0 15.563 1.813 29.005 5.119 40.484 2.672 9.276 8.756 17.197 16.925 22.342l32.597 20.529c8.88 5.593 19.318 7.58 29.309 5.975-24.979-26.418-40.301-62.063-40.301-101.291z" fill="#f6ca56"></path><ellipse cx="293.23" cy="327.14" fill="#f6ca56" rx="23.547" ry="50.042" transform="matrix(.707 -.707 .707 .707 -145.438 303.162)"></ellipse><ellipse cx="248.517" cy="327.14" fill="#f3c23b" rx="23.547" ry="50.042"></ellipse><path d="m494.266 88.511c-7.662-9.803-22.62-1.902-61.548 8.407-.083.024-.165.047-.248.071-14.952 4.261-30.375 6.648-45.912 7.219l-44.971 1.654c-39.05 0-71.668 27.515-79.539 64.213-.255.139-.51.276-.745.446-3.423 2.28-3.773 8.392-1.067 16.499 0 .065-.002.13-.002.195v9.237l3.741-.699c7.651 14.872 23.224 33.328 46.678 47.715 42.804 26.457 69.977 13.448 71.433 1.424 1.543-9.749-8.207-15.267-29.319-27.836 3.262 1.349 6.646 2.614 10.156 3.773 47.729 15.941 71.197-2.951 69.857-14.989-.712-9.574-10.905-12.801-33.018-19.774 53.023-9.857 66.747-37.847 59.401-48.444-.496-.778-1.047-1.469-1.651-2.089 37.124-14.394 43.8-38.655 36.754-47.022z" fill="#f3c23b"></path><path d="m235.444 170.52c-.235-.169-.49-.307-.745-.446-7.871-36.699-40.489-64.213-79.539-64.213l-44.971-1.654c-15.537-.571-30.96-2.957-45.912-7.219-.083-.024-.165-.047-.248-.071-38.927-10.309-53.885-18.209-61.547-8.406-7.047 8.368-.371 32.628 36.754 47.021-.604.62-1.155 1.311-1.651 2.089-7.346 10.597 6.378 38.588 59.401 48.444-22.113 6.973-32.306 10.2-33.018 19.774-1.339 12.038 22.128 30.93 69.857 14.989 3.51-1.159 6.894-2.424 10.156-3.773-21.112 12.569-30.862 18.086-29.319 27.836 1.456 12.024 28.629 25.034 71.433-1.424 23.482-14.403 39.063-32.885 46.704-47.766l3.715.75v-9.237c0-.065-.002-.13-.002-.196 2.706-8.106 2.356-14.218-1.068-16.498z" fill="#f1b70b"></path><path d="m172.909 256.747c.836 5.571 1.963 10.78 3.361 15.633 2.672 9.276 8.756 17.197 16.925 22.342l32.597 20.529c13.8 8.691 31.364 8.691 45.164 0l32.597-20.529c8.168-5.145 14.253-13.065 16.925-22.342 1.389-4.823 2.511-9.997 3.346-15.53l-75.706-59.636z" fill="#f9ee80"></path><path d="m173.989 198.727c-1.849 10.552-2.839 21.676-2.839 33.169 0 9.022.613 17.327 1.77 24.955 5.541 8.634 13.018 13.94 21.253 13.94 11.678 0 21.841-10.653 27.1-26.37 5.26 15.717 15.422 26.37 27.1 26.37s21.841-10.653 27.1-26.37c5.26 15.717 15.422 26.37 27.1 26.37 8.235 0 15.712-5.306 21.253-13.94 1.156-7.627 1.77-15.932 1.77-24.955 0-11.493-.989-22.617-2.839-33.169l-74.009-51.007z" fill="#f6ca56"></path><path d="m322.758 198.727c-8.437-48.186-34.8-84.444-66.91-89.361h-7.474-7.474c-32.109 4.917-58.472 41.176-66.91 89.361 5.417 7.689 12.467 12.349 20.183 12.349 11.678 0 21.841-10.653 27.1-26.37 5.26 15.717 15.422 26.37 27.1 26.37s21.841-10.653 27.1-26.37c5.26 15.717 15.422 26.37 27.1 26.37 7.718 0 14.768-4.66 20.185-12.349z" fill="#f9ee80"></path><path d="m245.115 139.32c.82.059 1.643.088 2.47.088 9.788 0 19.181-4.155 26.142-11.564l2.175-2.315c1.628-1.733 4.244-1.745 5.886-.028l6.165 6.446c2.667 2.788 7.135.754 7.135-3.248v-46.812c0-15.503-5.05-29.571-13.26-39.914-2.238-2.819-4.863-5.076-7.727-6.704-4.227-2.403-8.242-5.212-11.789-8.662-2.351-2.286-5.35-4.494-8.842-6.479h-17.697l-23.146 46.316 4.399 54.971z" fill="#f6ca56"></path><path d="m305.959 49.548h-9.761v-.475c0-5.685-4.42-10.527-10.102-10.729-5.964-.212-10.866 4.56-10.866 10.477v12.051h-1.327c-5.685 0-10.527 4.421-10.729 10.102-.212 5.964 4.56 10.866 10.477 10.866h14.726c5.777 0 11.546-.594 17.173-1.901 9.329-2.167 16.575-1.898 25.136-.144h.56c1.37 0 2.481-1.111 2.481-2.481-.001-15.334-12.433-27.766-27.768-27.766z" fill="#f9ee80"></path><path d="m224.97 84.037c0-25.376 11.005-48.18 28.499-63.907-3.557-2.022-7.623-3.814-12.036-5.221-16.733-5.336-32.093-3.138-34.307 4.91-1.077 3.916 1.163 8.495 5.668 12.78-14.996 2.627-26.013 10.058-25.358 17.629.352 4.072 4.017 7.431 9.692 9.605 3.298 1.263 5.3 4.891 4.568 8.576-.859 4.322-1.317 8.834-1.317 13.478v46.663c0 4.021 4.506 6.047 7.162 3.22l5.838-6.214c1.638-1.744 4.275-1.744 5.913 0l2.149 2.287c6.373 6.783 14.786 10.828 23.673 11.465-12.568-14.939-20.144-34.219-20.144-55.271z" fill="#f1b70b"></path><path d="m241.249 65.085c-4.143 0-7.5-3.357-7.5-7.5v-6.502c0-4.143 3.357-7.5 7.5-7.5s7.5 3.357 7.5 7.5v6.502c0 4.143-3.357 7.5-7.5 7.5z" fill="#303646"></path><g fill="#f6334c"><path d="m140.582 441.437c-7.151-2.639-13.812-5.511-15.89-6.42-1.496-1.22-1.445-2.909-1.344-3.615.144-.996.87-3.432 4.519-4.53 8.14-2.452 15.707 3.516 15.919 3.686 3.17 2.627 7.873 2.209 10.527-.948 2.665-3.171 2.256-7.902-.915-10.567-.556-.466-13.78-11.377-29.857-6.533-8.146 2.454-13.908 8.877-15.04 16.763-1.062 7.403 2.146 14.524 8.376 18.586.331.216.679.405 1.04.566.339.15 8.397 3.738 17.474 7.086 2.52.93 8.297 3.545 7.547 7.75-.57 3.192-4.478 6.493-10.029 6.493-5.759 0-11.301-2.32-14.823-6.206-2.782-3.069-7.526-3.301-10.594-.52-3.069 2.782-3.302 7.524-.52 10.594 6.413 7.074 15.866 11.132 25.937 11.132 12.417 0 22.845-7.931 24.795-18.856 1.469-8.232-2.257-18.979-17.122-24.461z" fill="#f6334c" style="fill: rgb(255, 0, 34);"></path><path d="m374.933 455.637c9.57-2.887 16.533-11.508 16.533-21.667 0-12.517-10.568-22.699-23.559-22.699h-15.541c-.003 0-.006 0-.009 0s-.006 0-.009 0c-4.143 0-7.5 3.357-7.5 7.5v58.481c0 4.143 3.357 7.5 7.5 7.5s7.5-3.357 7.5-7.5v-16.051l18.488 21.006c1.482 1.685 3.553 2.545 5.633 2.545 1.76 0 3.527-.616 4.952-1.87 3.109-2.736 3.411-7.476.675-10.585zm-7.025-29.366c4.64 0 8.559 3.525 8.559 7.699 0 4.173-3.919 7.698-8.559 7.698-1.868 0-5.009.013-7.975.027-.015-2.89-.027-5.926-.027-7.726 0-1.533-.008-4.67-.016-7.699h8.018z" fill="#f6334c" style="fill: rgb(255, 0, 34);"></path><path d="m207.65 411.271h-16.283c-.251 0-.501.013-.75.038-.192.019-.379.052-.566.084-.054.01-.109.014-.163.025-.227.045-.449.103-.667.168-.014.004-.028.007-.042.011-.225.068-.445.148-.66.237-.01.004-.02.007-.029.011-.21.087-.414.186-.614.291-.016.009-.034.015-.05.024-.189.101-.371.213-.549.33-.027.017-.055.032-.082.05-.192.129-.376.267-.555.412-.011.009-.023.017-.034.026-.191.157-.374.323-.548.498-.001 0-.001.001-.002.001-.015.015-.028.032-.043.048-.156.159-.306.323-.447.495-.039.048-.073.1-.111.149-.112.144-.224.289-.326.441-.032.048-.059.1-.09.149-.101.158-.199.318-.288.484-.021.039-.037.08-.057.119-.091.179-.179.359-.256.546-.015.035-.025.072-.039.107-.076.191-.147.385-.207.583-.013.042-.021.086-.033.128-.054.191-.105.384-.144.581-.015.076-.022.155-.035.231-.027.164-.056.328-.073.495-.015.151-.017.303-.023.456-.003.094-.014.187-.014.282v58.481c0 4.143 3.357 7.5 7.5 7.5s7.5-3.357 7.5-7.5v-17.943c3.225-.017 6.736-.032 8.783-.032 13.414 0 24.327-10.768 24.327-24.003s-10.916-24.003-24.33-24.003zm0 33.006c-2.032 0-5.502.015-8.711.031-.017-3.322-.032-6.944-.032-9.034 0-1.773-.009-5.523-.019-9.004h8.762c5.056 0 9.327 4.123 9.327 9.004 0 4.88-4.272 9.003-9.327 9.003z" fill="#f6334c" style="fill: rgb(255, 0, 34);"></path><path d="m315.348 467.668c3.645-5.679 5.77-12.422 5.77-19.657 0-20.126-16.374-36.5-36.5-36.5s-36.5 16.374-36.5 36.5 16.374 36.5 36.5 36.5c7.476 0 14.431-2.263 20.224-6.134l3.943 3.942c1.465 1.464 3.385 2.196 5.304 2.196s3.839-.732 5.304-2.196c2.929-2.93 2.929-7.678 0-10.607zm-30.73 1.843c-11.855 0-21.5-9.645-21.5-21.5s9.645-21.5 21.5-21.5 21.5 9.645 21.5 21.5c0 3.063-.654 5.973-1.814 8.613l-3.621-3.621c-2.93-2.928-7.678-2.928-10.607 0-2.929 2.93-2.929 7.678 0 10.607l3.783 3.783c-2.804 1.343-5.93 2.118-9.241 2.118z" fill="#f6334c" style="fill: rgb(255, 0, 34);"></path></g></g></svg>