<!-- icon666.com - MILLIONS vector ICONS FREE --><svg id="Capa_1" enable-background="new 0 0 512 512" viewBox="0 0 512 512" xmlns="http://www.w3.org/2000/svg"><g><path d="m512 120.219c0-5.398-2.105-10.466-5.889-14.231-3.802-3.823-8.87-5.929-14.27-5.929h-111.633c-20.593 0-40.357 5.505-57.744 16.006l-21.267-31.223 17.265-24.999c3.299-4.567 3.781-10.505 1.247-15.554-2.568-5.118-7.721-8.298-13.446-8.298h-36.862c-27.044 0-51.885 15.849-63.284 40.378l-18.046 38.828c-17.027-9.936-36.262-15.137-56.28-15.137h-111.632c-5.4 0-10.468 2.106-14.232 5.891-3.822 3.804-5.927 8.871-5.927 14.27 0 15.721 8.558 29.472 21.254 36.869v5.9c0 19.799 13.56 36.488 31.88 41.275v1.497c0 23.524 19.139 42.663 42.663 42.663h67.695l45.016 32.678-14.178 34.95h-131.791c-11.067 0-20.069 9.003-20.069 20.069v119.816c0 11.067 9.003 20.069 20.069 20.069h147.408c5.533 0 10.02-4.486 10.02-10.02s-4.486-10.02-10.02-10.02l-147.438-.03.03-119.845 386.419.03-.029 119.846h-147.409c-5.533 0-10.02 4.486-10.02 10.02s4.486 10.02 10.02 10.02h147.409c11.066 0 20.069-9.003 20.069-20.069v-119.817c0-11.066-9.003-20.069-20.069-20.069h-130.967l-14.179-34.951 45.006-32.678h67.705c23.52 0 42.654-19.139 42.654-42.663v-1.496c18.321-4.786 31.883-21.476 31.883-41.276v-6.065c12.539-7.435 20.969-21.101 20.969-36.705zm-42.66 22.612h-99.994c-5.533 0-10.02 4.486-10.02 10.02s4.486 10.02 10.02 10.02h.194c.029 0 .058.004.087.004h101.363v.115c0 12.472-10.147 22.618-22.618 22.618h-95.277c-5.533 0-10.02 4.486-10.02 10.02 0 3.113 1.42 5.894 3.647 7.732 1.733 1.432 3.955 2.292 6.378 2.292h86.008v.11c0 12.475-10.145 22.624-22.614 22.624h-70.958c-2.114 0-4.175.669-5.886 1.912l-53.985 39.197c-3.728 2.706-5.13 7.606-3.398 11.874l14.071 34.684h-80.382l14.071-34.684c1.732-4.269.33-9.169-3.398-11.875l-53.995-39.197c-1.711-1.242-3.772-1.911-5.887-1.911h-70.95c-12.476 0-22.624-10.149-22.624-22.624v-.11h86.018c5.533 0 10.02-4.486 10.02-10.02 0-1.385-.281-2.704-.789-3.903-1.521-3.597-5.082-6.121-9.233-6.121h-95.277c-12.472 0-22.618-10.147-22.618-22.618v-.115h101.364c5.533 0 10.02-4.486 10.02-10.02 0-2.768-1.122-5.273-2.936-7.086-1.813-1.814-4.319-2.936-7.086-2.936h-99.996c-12.474 0-22.621-10.143-22.6-22.674.013-.013.086-.045.099-.058h111.632c19.795 0 38.652 6.19 54.532 17.901 2.421 1.785 5.515 2.389 8.427 1.643 2.914-.744 5.339-2.758 6.606-5.484l22.933-49.344c8.126-17.485 25.834-28.784 45.112-28.784h27.341l-15.939 23.077c-2.353 3.408-2.368 7.912-.036 11.335l30.722 45.104c1.532 2.249 3.913 3.778 6.596 4.236 2.685.46 5.436-.195 7.628-1.81 15.872-11.694 34.716-17.875 54.495-17.875l111.693.02c.013.013.047.088.06.101 0 12.466-10.148 22.61-22.621 22.61z" fill="#000000" style="fill: rgb(0, 0, 0);"></path><path d="m127.009 423.8c-7.2 0-14.12-2.894-18.514-7.742-3.717-4.1-10.053-4.412-14.153-.696-4.101 3.716-4.412 10.052-.697 14.153 8.25 9.103 20.411 14.324 33.363 14.324 16.033 0 29.501-10.257 32.024-24.39 1.904-10.663-2.9-24.58-22.094-31.66-9.02-3.327-17.426-6.947-20.134-8.132-1.669-1.401-1.61-3.32-1.494-4.127.169-1.178 1.035-4.06 5.419-5.38 10.101-3.046 19.541 4.378 19.826 4.605 4.233 3.509 10.515 2.948 14.061-1.27 3.561-4.236 3.013-10.556-1.223-14.117-.714-.601-17.742-14.643-38.444-8.407-10.545 3.177-18.007 11.5-19.474 21.721-1.38 9.608 2.787 18.85 10.871 24.12.442.289.907.542 1.389.757.432.193 10.703 4.765 22.268 9.03 2.415.891 10.22 4.196 9.302 9.337-.69 3.871-5.478 7.874-12.296 7.874z" fill="#000000" style="fill: rgb(0, 0, 0);"></path><path d="m420.417 378.732c0-16.191-13.663-29.364-30.459-29.364h-19.779c-5.533 0-10.02 4.486-10.02 10.02l-.024 74.426c-.004 5.534 4.479 10.022 10.013 10.026h.007c5.53 0 10.016-4.481 10.02-10.013l.012-17.287 22.943 24.177c1.971 2.076 4.617 3.123 7.27 3.123 2.476 0 4.957-.912 6.895-2.751 4.014-3.809 4.18-10.151.371-14.165l-18.964-19.985c12.546-3.643 21.715-14.907 21.715-28.207zm-30.459 9.41h-9.759v-18.735h9.759c5.648 0 10.42 4.27 10.42 9.325 0 5.101-4.772 9.41-10.42 9.41z" fill="#000000" style="fill: rgb(0, 0, 0);"></path><path d="m206.344 349.368h-20.725c-5.533 0-10.02 4.486-10.02 10.02v74.432c0 5.534 4.486 10.02 10.02 10.02 5.533 0 10.02-4.486 10.02-10.02v-22.31h10.705c17.334 0 31.436-13.959 31.436-31.117.001-17.108-14.102-31.025-31.436-31.025zm0 42.103h-10.705v-22.064h10.705c6.178 0 11.397 5.031 11.397 10.985.001 6.005-5.218 11.079-11.397 11.079z" fill="#000000" style="fill: rgb(0, 0, 0);"></path><path d="m294.006 349.368c-26.046 0-47.236 21.19-47.236 47.236s21.19 47.236 47.236 47.236c9.556 0 18.453-2.861 25.895-7.759l4.524 4.524c1.957 1.956 4.521 2.934 7.085 2.934 2.565 0 5.128-.978 7.085-2.935 3.913-3.913 3.913-10.257 0-14.17l-4.653-4.653c4.615-7.294 7.299-15.926 7.299-25.178.001-26.045-21.189-47.235-47.235-47.235zm0 74.432c-14.996 0-27.197-12.201-27.197-27.197s12.201-27.197 27.197-27.197 27.197 12.201 27.197 27.197c0 3.673-.736 7.177-2.062 10.377l-4.358-4.358c-3.914-3.913-10.256-3.912-14.17 0-3.913 3.913-3.913 10.257 0 14.17l4.587 4.587c-3.417 1.551-7.205 2.421-11.194 2.421z" fill="#000000" style="fill: rgb(0, 0, 0);"></path><circle cx="256.011" cy="465.987" r="10.02" fill="#000000" style="fill: rgb(0, 0, 0);"></circle></g></svg>